<svg xmlns="http://www.w3.org/2000/svg" xmlns:xlink="http://www.w3.org/1999/xlink" width="648" height="491" viewBox="0 0 648 491">
  <defs>
    <filter id="Rectángulo_36493" x="0" y="0" width="648" height="491" filterUnits="userSpaceOnUse">
      <feOffset dy="3" input="SourceAlpha"/>
      <feGaussianBlur stdDeviation="3" result="blur"/>
      <feFlood flood-opacity="0.161"/>
      <feComposite operator="in" in2="blur"/>
      <feComposite in="SourceGraphic"/>
    </filter>
    <clipPath id="clip-path">
      <rect id="Rectángulo_36519" data-name="Rectángulo 36519" width="422.582" height="421.95" fill="none"/>
    </clipPath>
  </defs>
  <g id="Grupo_141343" data-name="Grupo 141343" transform="translate(-8342 11254)">
    <g transform="matrix(1, 0, 0, 1, 8342, -11254)" filter="url(#Rectángulo_36493)">
      <rect id="Rectángulo_36493-2" data-name="Rectángulo 36493" width="630" height="473" rx="35" transform="translate(9 6)" fill="#fff"/>
    </g>
    <g id="Grupo_141257" data-name="Grupo 141257" transform="translate(8454.709 -11222.475)">
      <g id="Grupo_141256" data-name="Grupo 141256" transform="translate(0 0)" clip-path="url(#clip-path)">
        <path id="Trazado_118125" data-name="Trazado 118125" d="M18.359,65.108A145.45,145.45,0,0,1,72.709,75.62L97.066,15.365A208.58,208.58,0,0,0,18.043,0V65.131c.094,0,.187-.023.316-.023" transform="translate(192.938 0)" fill="#004a80"/>
        <path id="Trazado_118126" data-name="Trazado 118126" d="M67.643,90.112l44.294-47.486C91.9,23.964,72.461,11.581,47.075,1.314L22.718,61.581A145.812,145.812,0,0,1,67.643,90.112" transform="translate(242.929 14.051)" fill="#5888a5"/>
        <path id="Trazado_118127" data-name="Trazado 118127" d="M70.855,4.847,26.561,52.333A145.519,145.519,0,0,1,73.123,159.151a145.924,145.924,0,0,1-5.671,40.295l62.3,17.856c22.65-78.964,1.169-156.432-58.9-212.454" transform="translate(284.023 51.83)" fill="#6ccff6"/>
        <path id="Trazado_118128" data-name="Trazado 118128" d="M24.476,106.357l33.431,55.695c46.937-28.2,79.035-70.066,94.13-122.7l-62.3-17.867a146.13,146.13,0,0,1-65.26,84.869" transform="translate(261.727 229.776)" fill="#0095d9"/>
        <path id="Trazado_118129" data-name="Trazado 118129" d="M211.3,356.831a145.844,145.844,0,0,1-.316-291.688V0C94.458,0,0,94.47,0,210.981S94.458,421.95,210.981,421.95c41.008,0,73.492-9,108.665-30.122l-33.454-55.695a145.079,145.079,0,0,1-74.9,20.7" transform="translate(0 0)" fill="#16325c"/>
        <path id="Trazado_118130" data-name="Trazado 118130" d="M26.047,2.863a5.5,5.5,0,0,0-6.572,4.853,5.645,5.645,0,0,0,4.771,6.747,5.583,5.583,0,0,0,6.56-4.981,5.508,5.508,0,0,0-4.759-6.618m2.011,6.2c-.3,2.07-1.7,3.438-3.461,3.169-1.906-.292-2.678-2.035-2.385-4.081.316-2.011,1.684-3.321,3.5-3.029,1.789.269,2.678,1.941,2.35,3.941M39.517,12.37,36.138,4.781l-2.245-.433L31.718,15.492l2.514.491,1.3-6.653,3.391,7.554,2.233.456L43.329,6.184l-2.514-.491Zm13.517-1.649.515-2.21-7.378-1.7L43.622,17.877l7.355,1.7.526-2.21L46.627,16.24l.561-2.374,3.274.748.456-1.976-3.286-.748L48.17,9.6Z" transform="translate(207.385 29.702)" fill="#fff"/>
        <path id="Trazado_118131" data-name="Trazado 118131" d="M35.257,8.629,27.691,4.256l-1.1,1.918,2.643,1.52-4.7,8.209,2.268,1.31L31.527,9l2.643,1.532Zm12.255,7.566-6.022,6.232,2.643-8.349L41.98,12.722l-6.244,6.1,2.877-8.22L36.216,9.1,32.7,20.685l2.444,1.52,5.987-5.753-2.561,7.893,2.456,1.544,8.9-8.162Zm8.548,5.543a5.652,5.652,0,0,0-8.244,1.544,5.886,5.886,0,1,0,9.67,6.7,5.646,5.646,0,0,0-1.427-8.244m-.912,6.642c-1.216,1.754-3.134,2.4-4.619,1.368-1.625-1.134-1.59-3.1-.374-4.841,1.193-1.707,3.029-2.327,4.572-1.251,1.52,1.052,1.625,2.993.421,4.724" transform="translate(262.348 45.51)" fill="#fff"/>
        <path id="Trazado_118132" data-name="Trazado 118132" d="M45.3,22.571,48.052,21.5,43.866,10.574l-2.748,1.064,1.462,3.8L30.734,20.01,32.009,23.3l11.834-4.549ZM52.1,32.99l-5.975,2.093-2-5.73L50.11,27.26l-1.146-3.333L34.2,29.049l1.169,3.344,6.127-2.14,1.988,5.73-6.139,2.14L38.5,41.456l14.757-5.133ZM53.15,52.857c2.678-.83,4.128-3.718,3.1-7.1l-1.766-5.695L39.562,44.671l1.029,3.368L45.924,46.4l.585,1.906-4.4,4.642,1.1,3.672,4.806-5.355a4.791,4.791,0,0,0,5.133,1.59m-.62-8.489.725,2.327a1.994,1.994,0,0,1-1.181,2.7,1.959,1.959,0,0,1-2.467-1.579l-.725-2.327ZM47.759,61.346l3.251-.889,1.24,4.479,2.678-.748-1.2-4.49,3.087-.842,1.812,6.63,3.029-.83L58.88,54.634,43.819,58.75l2.76,10.044,3.005-.83Zm14.663,6.373L47.233,71.4l2.444,10.126,3.052-.725L51.1,74.1l3.262-.783,1.111,4.5,2.725-.655-1.1-4.514,3.11-.772,1.625,6.7,3.04-.737Z" transform="translate(328.646 113.07)" fill="#fff"/>
        <path id="Trazado_118133" data-name="Trazado 118133" d="M65.076,24.5l-2.1,3.11,4.642,3.145-2.771,4.081L67.59,36.7l2.76-4.116,3.672,2.491L69.9,41.135l2.771,1.871,6.209-9.191Zm-.21,15.353c-3.976-2.9-9-2.385-11.974,1.707s-1.883,9,2.116,11.915,8.84,2.28,11.81-1.789c2.982-4.116,2.093-8.91-1.953-11.834m-.725,9.869c-1.555,2.128-4.338,2.2-6.759.444-2.491-1.789-3.344-4.537-1.824-6.63,1.66-2.292,4.467-2.175,6.922-.4,2.421,1.777,3.227,4.4,1.66,6.583M42.367,55.506c-2.5,3.2-2.14,6.876,1.158,9.46l8.045,6.279L53.885,68.3l-8.057-6.291c-1.637-1.3-2-2.958-.83-4.455s2.853-1.52,4.514-.234l8.033,6.291,2.315-2.958-8.033-6.291c-3.3-2.572-6.957-2.058-9.46,1.146M33.82,66.58,38.38,70.4,37,72.029l-6.712-1.251-2.619,3.134L35.223,75.1a5.074,5.074,0,0,0,1.544,5.5c2.292,1.929,5.718,1.555,8.138-1.321L48.986,74.4,36.228,63.7Zm5.414,7.94,1.672-2,3.11,2.631-1.66,1.976a2.115,2.115,0,0,1-3.1.515c-.935-.783-.959-2-.023-3.122" transform="translate(295.871 261.941)" fill="#fff"/>
        <path id="Trazado_118134" data-name="Trazado 118134" d="M18.885,46.228l7.636-.14-.082-4.6-5.157.082-.047-3.45,5.168-.082L26.3,32.231l3.917-.07L30.5,49.491l-11.541.2Z" transform="translate(201.938 343.908)" fill="#fff"/>
        <rect id="Rectángulo_36518" data-name="Rectángulo 36518" width="17.361" height="3.912" transform="translate(214.029 393.526) rotate(-89.112)" fill="#fff"/>
        <path id="Trazado_118135" data-name="Trazado 118135" d="M25.38,36.512,20.925,49.421,16.7,49.3,23.52,32.151l3.964.117,5.8,17.528-4.233-.129Z" transform="translate(178.612 343.793)" fill="#fff"/>
        <path id="Trazado_118136" data-name="Trazado 118136" d="M16.561,32.063l11.518.7L27.038,50.082,15.5,49.392l.222-3.473,7.612.468.222-3.566-5.133-.3.175-3.1,5.145.3.222-3.742-7.612-.444Z" transform="translate(165.711 342.852)" fill="#fff"/>
      </g>
    </g>
  </g>
</svg>
