<svg xmlns="http://www.w3.org/2000/svg" xmlns:xlink="http://www.w3.org/1999/xlink" width="648" height="491" viewBox="0 0 648 491">
  <defs>
    <filter id="Rectángulo_36520" x="0" y="0" width="648" height="491" filterUnits="userSpaceOnUse">
      <feOffset dy="3" input="SourceAlpha"/>
      <feGaussianBlur stdDeviation="3" result="blur"/>
      <feFlood flood-opacity="0.161"/>
      <feComposite operator="in" in2="blur"/>
      <feComposite in="SourceGraphic"/>
    </filter>
    <clipPath id="clip-path">
      <rect id="Rectángulo_36533" data-name="Rectángulo 36533" width="472.566" height="375.653" fill="none"/>
    </clipPath>
  </defs>
  <g id="Grupo_141344" data-name="Grupo 141344" transform="translate(-9007 11254)">
    <g transform="matrix(1, 0, 0, 1, 9007, -11254)" filter="url(#Rectángulo_36520)">
      <rect id="Rectángulo_36520-2" data-name="Rectángulo 36520" width="630" height="473" rx="35" transform="translate(9 6)" fill="#fff"/>
    </g>
    <g id="Grupo_141259" data-name="Grupo 141259" transform="translate(9094.717 -11199.326)">
      <g id="Grupo_141258" data-name="Grupo 141258" clip-path="url(#clip-path)">
        <path id="Trazado_118137" data-name="Trazado 118137" d="M29.034,14.527A14.517,14.517,0,1,1,14.517,0,14.505,14.505,0,0,1,29.034,14.527" fill="#16325c"/>
        <path id="Trazado_118138" data-name="Trazado 118138" d="M29.034,55.095A14.517,14.517,0,1,1,14.517,40.586,14.523,14.523,0,0,1,29.034,55.095" transform="translate(0 27.957)" fill="#16325c"/>
        <path id="Trazado_118139" data-name="Trazado 118139" d="M29.034,96.648A14.517,14.517,0,1,1,14.517,82.122,14.5,14.5,0,0,1,29.034,96.648" transform="translate(0 56.569)" fill="#16325c"/>
        <path id="Trazado_118140" data-name="Trazado 118140" d="M29.034,137.217a14.517,14.517,0,1,1-14.517-14.509,14.523,14.523,0,0,1,14.517,14.509" transform="translate(0 84.526)" fill="#16325c"/>
        <path id="Trazado_118141" data-name="Trazado 118141" d="M29.034,178.77a14.517,14.517,0,1,1-14.517-14.527A14.505,14.505,0,0,1,29.034,178.77" transform="translate(0 113.136)" fill="#16325c"/>
        <path id="Trazado_118142" data-name="Trazado 118142" d="M29.034,219.768a14.517,14.517,0,1,1-14.517-14.527,14.505,14.505,0,0,1,14.517,14.527" transform="translate(0 141.377)" fill="#16325c"/>
        <line id="Línea_144" data-name="Línea 144" x2="6.125" transform="translate(35.13 14.411)" fill="none" stroke="#231f20" stroke-width="1.17"/>
        <line id="Línea_145" data-name="Línea 145" x2="6.125" transform="translate(35.13 84.19)" fill="none" stroke="#231f20" stroke-width="1.17"/>
        <line id="Línea_146" data-name="Línea 146" x2="6.125" transform="translate(35.13 153.776)" fill="none" stroke="#231f20" stroke-width="1.17"/>
        <line id="Línea_147" data-name="Línea 147" x2="6.125" transform="translate(35.13 223.362)" fill="none" stroke="#231f20" stroke-width="1.17"/>
        <line id="Línea_148" data-name="Línea 148" x2="6.125" transform="translate(35.13 292.949)" fill="none" stroke="#231f20" stroke-width="1.17"/>
        <line id="Línea_149" data-name="Línea 149" x2="6.539" transform="translate(35.13 362.534)" fill="none" stroke="#231f20" stroke-width="1.17"/>
        <path id="Trazado_118143" data-name="Trazado 118143" d="M7.3,5.025l-.049.019-.037.039-.029.039c-.059.522-.137,1.1-.223,1.775-.086.7-.193,1.5-.309,2.469a1.7,1.7,0,0,1-.039.27,2.493,2.493,0,0,1-.039.29,1.166,1.166,0,0,0-.008.172.387.387,0,0,1-.029.155l.037.076.059.039h.076a8.7,8.7,0,0,1,4.42-1.349,3.553,3.553,0,0,1,2.69,1.022,3.787,3.787,0,0,1,.954,2.7A5.278,5.278,0,0,1,9.331,18.2a4.779,4.779,0,0,1-2.385-.637,2.352,2.352,0,0,1-1.292-2.1,2.1,2.1,0,0,1,.569-1.292,1.53,1.53,0,0,1,1.148-.676c.135,0,.2.076.2.25,0,.078-.057.135-.174.193-.868.29-1.292.792-1.292,1.525a1.987,1.987,0,0,0,1.081,1.7,3.829,3.829,0,0,0,2.141.579,4.818,4.818,0,0,0,5-5,3.286,3.286,0,0,0-.849-2.393,3.09,3.09,0,0,0-2.342-.887A8.487,8.487,0,0,0,6.377,11.14a.771.771,0,0,1-.193.057c-.115,0-.174-.076-.174-.231v-.057c.01-.115.03-.213.039-.309a3.252,3.252,0,0,1,.059-.385c.029-.174.047-.366.076-.6.02-.211.049-.442.078-.694V8.806a.24.24,0,0,0,.02-.1c.029-.29.066-.579.1-.907a1.283,1.283,0,0,0,.049-.309c.01-.115.019-.213.029-.309.078-.54.145-1,.193-1.388.057-.405.1-.733.117-1.042a.192.192,0,0,1,.221-.174h7.63c.135,0,.193.078.193.213a.2.2,0,0,1-.231.231Z" transform="translate(3.895 3.156)" fill="#fff"/>
        <path id="Trazado_118144" data-name="Trazado 118144" d="M11.014,54.538l-.039-.039-.047-.02a7.789,7.789,0,0,1-.762-.193c-.366-.1-.841-.25-1.429-.424a8.758,8.758,0,0,0-2.287-.385,4.315,4.315,0,0,0-1.331.193c-.078.019-.115.039-.133.039-.127,0-.194-.059-.194-.155a.524.524,0,0,1,.02-.154l3.048-7.215c.056-.117.115-.174.193-.174.164,0,.25.076.25.231,0,.019,0,.019-.02.057v.02c0-.02.02-.02.059-.02l-.059.039H8.264L5.517,52.916l.019.078.039.057.076.039a3.5,3.5,0,0,1,.8-.076,7.734,7.734,0,0,1,2.248.424c.579.172,1.052.309,1.429.405.377.076.645.154.829.174l.078-.02.039-.039.008-.057V45.818a.216.216,0,0,1,.231-.194c.154,0,.231.078.231.194v8.159l.02.059.039.039.057.019h.211A3.817,3.817,0,0,0,14.989,52.3a.283.283,0,0,1,.182-.078.211.211,0,0,1,.24.231.209.209,0,0,1-.057.155,4.317,4.317,0,0,1-3.482,1.947H11.6l-.059.02-.039.039-.019.057v4.418c-.01.135-.086.193-.221.193-.155,0-.231-.078-.231-.211V54.6Z" transform="translate(3.301 31.427)" fill="#fff"/>
        <path id="Trazado_118145" data-name="Trazado 118145" d="M14.852,86.736c.144,0,.213.039.213.1,0,.213-.444.733-1.322,1.582-.328.27-.723.637-1.206,1.042-.481.424-1.032.925-1.687,1.5l-.02.078.02.057.1.057A4.9,4.9,0,0,1,12,91.039a3.615,3.615,0,0,1,2.393.848,2.834,2.834,0,0,1,1.071,2.277v.154a5.486,5.486,0,0,1-.473,2.258A6.9,6.9,0,0,1,13.7,98.446a6.1,6.1,0,0,1-1.871,1.292,5.185,5.185,0,0,1-2.209.483H9.566a6.02,6.02,0,0,1-1.881-.289A5.35,5.35,0,0,1,6.151,99.1a3.633,3.633,0,0,1-1.042-1.2,2.955,2.955,0,0,1-.385-1.447,2.647,2.647,0,0,1,1.147-2.314l.039-.057H6c.164,0,.231.076.231.23,0,.039-.049.117-.164.233a2.218,2.218,0,0,0-.878,1.908,2.462,2.462,0,0,0,.356,1.236,3.778,3.778,0,0,0,.974,1.061,5.533,5.533,0,0,0,1.38.733,5.338,5.338,0,0,0,1.669.27h.057a4.981,4.981,0,0,0,2.065-.444A5.992,5.992,0,0,0,13.394,98.1a6.073,6.073,0,0,0,1.177-1.755,5.057,5.057,0,0,0,.434-2.064v-.117a2.355,2.355,0,0,0-.9-1.91A3.106,3.106,0,0,0,12,91.5a5.275,5.275,0,0,0-2.18.5.437.437,0,0,1-.144.057.173.173,0,0,1-.193-.193.273.273,0,0,1,.039-.135,22.507,22.507,0,0,1,2.246-2.2c.54-.461,1.013-.848,1.39-1.214.385-.348.686-.618.9-.848l.029-.079-.029-.133-.078-.039H7.058c-.135,0-.193-.1-.193-.252a.213.213,0,0,1,.211-.231Z" transform="translate(3.254 59.747)" fill="#fff"/>
        <path id="Trazado_118146" data-name="Trazado 118146" d="M7.3,132.766c-1.093-.694-1.63-1.427-1.63-2.217,0-.888.578-1.6,1.734-2.162a6.288,6.288,0,0,1,2.729-.676,3.455,3.455,0,0,1,2.037.579,2.239,2.239,0,0,1,.9,1.91q0,3.618-5.766,9.338l-.029.078.029.037.084.078a4.6,4.6,0,0,1,1.022-.115,8.6,8.6,0,0,1,2.113.385,9.365,9.365,0,0,0,2.18.385c.936,0,1.658-.6,2.18-1.812a.2.2,0,0,1,.194-.155.206.206,0,0,1,.231.231v.039c-.649,1.447-1.506,2.162-2.606,2.162a9.484,9.484,0,0,1-2.113-.387,8.459,8.459,0,0,0-2.18-.405,4.357,4.357,0,0,0-1.55.309,4.933,4.933,0,0,0-1.459.964l-.057.059-.035.037v-.019c-.03.057-.088.057-.155.057-.145,0-.221-.076-.221-.231,0-.057.076-.174.24-.328,4.967-4.592,7.438-8.142,7.438-10.707,0-1.351-.821-2.025-2.471-2.025a5.75,5.75,0,0,0-2.537.6c-.983.5-1.474,1.079-1.474,1.775,0,.637.473,1.235,1.405,1.812a.2.2,0,0,1,.128.193c0,.174-.088.252-.231.252a.284.284,0,0,1-.125-.039m8.005,5.923c0-.019,0-.039.008-.039Z" transform="translate(3.396 87.972)" fill="#fff"/>
        <path id="Trazado_118147" data-name="Trazado 118147" d="M10.243,181.7l.068-.078V170.645l-.047-.078-.1-.039-.076.039a1.733,1.733,0,0,0-.135.174c-.029.057-.068.115-.106.193-.193.27-.377.52-.54.753a4.778,4.778,0,0,1-.559.674,3.292,3.292,0,0,1-.694.54,4.592,4.592,0,0,1-.917.426h-.02a.208.208,0,0,1-.095.019c-.117,0-.174-.078-.174-.252a.177.177,0,0,1,.193-.193h.01a5.107,5.107,0,0,0,1-.694,4.594,4.594,0,0,0,.809-.811,10.9,10.9,0,0,0,.733-1c.242-.387.5-.809.782-1.273l.01-.019a.215.215,0,0,1,.221-.174c.155,0,.223.078.223.252v.057c-.01.174-.02.405-.02.616V181.62l.078.078H13.8c.135,0,.193.078.193.231a.221.221,0,0,1-.2.231H7.475c-.125,0-.194-.076-.194-.231,0-.135.078-.211.233-.231Z" transform="translate(4.717 116.363)" fill="#fff"/>
        <path id="Trazado_118148" data-name="Trazado 118148" d="M15.1,216.631a7.835,7.835,0,0,1-1.456,4.727,4.075,4.075,0,0,1-6.975,0,8.593,8.593,0,0,1,0-9.454,4.075,4.075,0,0,1,6.975,0,7.878,7.878,0,0,1,1.456,4.727m-.463,0a7.113,7.113,0,0,0-1.331-4.4,3.773,3.773,0,0,0-3.145-1.832,3.786,3.786,0,0,0-3.145,1.832,8.034,8.034,0,0,0,0,8.8,3.836,3.836,0,0,0,3.145,1.834,3.823,3.823,0,0,0,3.145-1.834,7.072,7.072,0,0,0,1.331-4.4" transform="translate(3.616 144.611)" fill="#fff"/>
        <path id="Trazado_118149" data-name="Trazado 118149" d="M24.651,8.248v348.7H455.586" transform="translate(16.981 5.681)" fill="none" stroke="#231f20" stroke-width="1.17"/>
        <rect id="Rectángulo_36521" data-name="Rectángulo 36521" width="44.139" height="166.257" transform="translate(134.099 195.562)" fill="#0095d9"/>
        <rect id="Rectángulo_36522" data-name="Rectángulo 36522" width="44.139" height="55.909" transform="translate(134.099 108.747)" fill="#0095d9"/>
        <path id="Trazado_118150" data-name="Trazado 118150" d="M103.155,116.843a6.018,6.018,0,0,0,1.745.925,6.958,6.958,0,0,0,2.141.328h.068a5.907,5.907,0,0,0,2.5-.539,6.888,6.888,0,0,0,2.123-1.486,6.654,6.654,0,0,0,1.447-2.123,5.981,5.981,0,0,0,.549-2.547v-.174a3.216,3.216,0,0,0-1.206-2.584,4.14,4.14,0,0,0-2.729-.946,6.536,6.536,0,0,0-1.2.115l-.106-.057-.019-.057.019-.1c.733-.676,1.38-1.235,1.92-1.718.53-.463.993-.868,1.368-1.175.995-.966,1.5-1.564,1.5-1.8,0-.078-.086-.117-.242-.117h-8.826c-.154.039-.242.117-.242.272,0,.174.068.269.223.269h7.851l.086.059.029.135-.029.1q-.36.375-1.012.983c-.436.387-.966.849-1.582,1.37a24.793,24.793,0,0,0-2.557,2.489.512.512,0,0,0-.039.135c0,.154.059.231.2.231a.354.354,0,0,0,.184-.078,6.323,6.323,0,0,1,2.469-.539,3.533,3.533,0,0,1,2.4.828,2.68,2.68,0,0,1,1.013,2.18v.117a5.625,5.625,0,0,1-.5,2.353,6.355,6.355,0,0,1-1.322,1.988,6.609,6.609,0,0,1-1.939,1.39,5.7,5.7,0,0,1-2.334.5h-.068a5.184,5.184,0,0,1-1.9-.329,5.072,5.072,0,0,1-1.572-.829,4.165,4.165,0,0,1-1.1-1.2,2.682,2.682,0,0,1-.405-1.388,2.554,2.554,0,0,1,.983-2.162c.145-.135.2-.231.2-.27a.237.237,0,0,0-.262-.269c-.057,0-.1,0-.106.019v-.019l-.047.056a3.03,3.03,0,0,0-1.292,2.645,3.209,3.209,0,0,0,.434,1.638,4.388,4.388,0,0,0,1.177,1.371m-18.6-.309A4.93,4.93,0,0,0,86,117.557a4.864,4.864,0,0,0,1.843.366h.213a5.437,5.437,0,0,0,1.853-.444,8.552,8.552,0,0,0,2.082-1.216,10.917,10.917,0,0,0,1.959-1.929,9.782,9.782,0,0,0,1.466-2.606v4.457a1.333,1.333,0,0,0,.174.657,2.08,2.08,0,0,0,.434.559,2.79,2.79,0,0,0,.6.385,1.323,1.323,0,0,0,.627.155h.117a1.869,1.869,0,0,0,.936-.252,4.04,4.04,0,0,0,.848-.655,6.15,6.15,0,0,0,.743-.946c.231-.346.453-.713.655-1.061v-.117a.255.255,0,0,0-.086-.174.225.225,0,0,0-.193-.095.336.336,0,0,0-.135.019.177.177,0,0,0-.088.154c-.144.27-.307.54-.471.811a7.428,7.428,0,0,1-.561.752,3.789,3.789,0,0,1-.6.6,1.824,1.824,0,0,1-.616.346c-.068.02-.145.039-.194.059a.5.5,0,0,1-.154.019,1.621,1.621,0,0,1-.522-.1,1.546,1.546,0,0,1-.471-.27,1.243,1.243,0,0,1-.358-.385.965.965,0,0,1-.154-.5V104.032a.35.35,0,0,0-.039-.193c-.029-.076-.1-.115-.213-.135a8.386,8.386,0,0,0-.925-.115c-.289,0-.578-.019-.868-.019a10.465,10.465,0,0,0-3.048.442,10.724,10.724,0,0,0-2.6,1.177,10.38,10.38,0,0,0-2.1,1.7,12.475,12.475,0,0,0-1.572,2.1,10.162,10.162,0,0,0-.985,2.277,8.148,8.148,0,0,0-.328,2.256,3.919,3.919,0,0,0,.338,1.6,4.915,4.915,0,0,0,.956,1.408m-.444-5.094a9.188,9.188,0,0,1,.925-2.16,11.716,11.716,0,0,1,1.5-1.988,9.508,9.508,0,0,1,2-1.658,10.444,10.444,0,0,1,2.471-1.138,10.172,10.172,0,0,1,2.922-.405c.231,0,.483.019.723.039s.493.039.763.076c-.02,1.371-.029,2.451-.039,3.2v2.373a9,9,0,0,1-1.2,3.2,10.713,10.713,0,0,1-1.959,2.373A9.366,9.366,0,0,1,90,116.843a5.783,5.783,0,0,1-1.988.559h-.145a4.222,4.222,0,0,1-3.751-2.43,3.218,3.218,0,0,1-.319-1.37,7.814,7.814,0,0,1,.319-2.162" transform="translate(57.355 70.81)" fill="#231f20"/>
        <rect id="Rectángulo_36523" data-name="Rectángulo 36523" width="44.141" height="126.536" transform="translate(203.26 236.016)" fill="#004a80"/>
        <rect id="Rectángulo_36524" data-name="Rectángulo 36524" width="44.141" height="55.907" transform="translate(203.26 149.224)" fill="#004a80"/>
        <path id="Trazado_118151" data-name="Trazado 118151" d="M142.31,140.42a.28.28,0,0,0,.164-.078v.039l.039-.078.069-.037a5.468,5.468,0,0,1,1.609-1.081,4.786,4.786,0,0,1,1.718-.328,9.691,9.691,0,0,1,2.393.442,10.494,10.494,0,0,0,2.342.407c1.208,0,2.17-.773,2.866-2.374v-.039a.217.217,0,0,0-.242-.25.223.223,0,0,0-.221.174c-.571,1.331-1.37,1.988-2.4,1.988a10.679,10.679,0,0,1-2.42-.405,9.406,9.406,0,0,0-2.315-.464,5.56,5.56,0,0,0-1.138.137l-.106-.059-.019-.078.019-.076c4.244-4.207,6.385-7.64,6.385-10.3a2.458,2.458,0,0,0-1-2.1,3.8,3.8,0,0,0-2.238-.655,6.606,6.606,0,0,0-3.02.772c-1.273.6-1.919,1.39-1.919,2.373,0,.868.608,1.679,1.794,2.451a.586.586,0,0,0,.145.039c.172,0,.252-.1.252-.27a.215.215,0,0,0-.127-.213c-1.032-.637-1.562-1.312-1.562-2.006,0-.752.549-1.408,1.63-1.967a6.422,6.422,0,0,1,2.807-.657c1.822,0,2.739.735,2.739,2.239q0,4.253-8.218,11.825c-.184.174-.28.309-.28.385a.232.232,0,0,0,.26.252M126,138.414a4.374,4.374,0,0,0,3.2,1.351h.213a5.092,5.092,0,0,0,1.794-.444,8.124,8.124,0,0,0,2.037-1.177,10.9,10.9,0,0,0,1.9-1.871,9.606,9.606,0,0,0,1.427-2.547v4.34a1.562,1.562,0,0,0,.164.657,1.8,1.8,0,0,0,.444.52,2.381,2.381,0,0,0,.569.385,1.263,1.263,0,0,0,.616.155h.106a1.762,1.762,0,0,0,.907-.25,3.138,3.138,0,0,0,.829-.638,5.68,5.68,0,0,0,.735-.925c.221-.328.424-.676.625-1.042v-.1a.252.252,0,0,0-.084-.172.269.269,0,0,0-.194-.1.375.375,0,0,0-.125.039c-.039,0-.068.059-.078.135-.144.252-.3.522-.471.792a6.41,6.41,0,0,1-.532.733,4.193,4.193,0,0,1-.588.579,1.648,1.648,0,0,1-.608.346c-.068.02-.135.039-.184.057h-.144a1.446,1.446,0,0,1-.5-.076,1.882,1.882,0,0,1-.473-.252,1.713,1.713,0,0,1-.348-.405.872.872,0,0,1-.135-.483V126.241a.835.835,0,0,0-.039-.194.26.26,0,0,0-.211-.133c-.309-.039-.618-.078-.9-.1s-.569-.02-.86-.02a9.874,9.874,0,0,0-2.961.424,10.455,10.455,0,0,0-2.538,1.14,11.189,11.189,0,0,0-2.054,1.658,12.538,12.538,0,0,0-1.525,2.045,10.13,10.13,0,0,0-.954,2.219,7.758,7.758,0,0,0-.328,2.2,3.683,3.683,0,0,0,.338,1.562,4.838,4.838,0,0,0,.925,1.37m-.434-4.958a8.443,8.443,0,0,1,.917-2.1,11.325,11.325,0,0,1,1.447-1.949,9.587,9.587,0,0,1,1.947-1.62,10.545,10.545,0,0,1,2.412-1.081,9.55,9.55,0,0,1,2.836-.405c.231,0,.473.02.7.039.24.02.491.039.752.078-.01,1.331-.029,2.373-.029,3.126-.01.733-.01,1.272-.01,1.62v.676a8.891,8.891,0,0,1-1.157,3.124,10.619,10.619,0,0,1-1.91,2.315,9.24,9.24,0,0,1-2.17,1.447,5.309,5.309,0,0,1-1.929.52h-.137a3.844,3.844,0,0,1-1.572-.309,3.91,3.91,0,0,1-1.253-.868,3.661,3.661,0,0,1-.839-1.175,3.36,3.36,0,0,1-.3-1.351,8.137,8.137,0,0,1,.3-2.084" transform="translate(85.923 86.241)" fill="#231f20"/>
        <rect id="Rectángulo_36525" data-name="Rectángulo 36525" width="44.141" height="232.466" transform="translate(67.898 129.353)" fill="#6ccff6"/>
        <rect id="Rectángulo_36526" data-name="Rectángulo 36526" width="44.141" height="55.909" transform="translate(67.898 42.538)" fill="#6ccff6"/>
        <path id="Trazado_118152" data-name="Trazado 118152" d="M63.824,67.084c.029,0,.068-.019.106-.019h.029a5.661,5.661,0,0,0,1.081-.5A5.174,5.174,0,0,0,66.5,65.175c.193-.29.4-.6.618-.907a1.859,1.859,0,0,1,.135-.213c.047-.078.1-.135.154-.213l.1-.057.106.057.068.078V76.73l-.1.078H64.4a.283.283,0,0,0-.262.289c0,.174.078.252.223.252h7.35a.25.25,0,0,0,.252-.252c0-.193-.078-.289-.223-.289h-3.4l-.086-.078V63.013c0-.27.008-.5.019-.733v-.057c0-.194-.086-.309-.27-.309a.247.247,0,0,0-.242.213l-.019.019c-.328.561-.627,1.042-.917,1.486a13.318,13.318,0,0,1-.848,1.177,8.193,8.193,0,0,1-.936.964,6.885,6.885,0,0,1-1.167.77h-.03a.22.22,0,0,0-.211.252c0,.193.068.289.193.289m-17,9.01a4.611,4.611,0,0,0,1.495,1.023A4.666,4.666,0,0,0,50.2,77.5h.221a5.59,5.59,0,0,0,1.9-.444A9.766,9.766,0,0,0,54.478,75.8a12.23,12.23,0,0,0,2-1.967,10.353,10.353,0,0,0,1.5-2.682v4.573a1.491,1.491,0,0,0,.182.676,2.138,2.138,0,0,0,.454.579,2.677,2.677,0,0,0,.608.385,1.431,1.431,0,0,0,.645.174h.117a1.933,1.933,0,0,0,.954-.27,4.378,4.378,0,0,0,.878-.676,6.167,6.167,0,0,0,.772-.964c.242-.366.463-.733.655-1.1v-.117a.294.294,0,0,0-.279-.289.3.3,0,0,0-.135.039.205.205,0,0,0-.1.135,8.907,8.907,0,0,1-.481.848c-.184.27-.377.54-.559.772a4.263,4.263,0,0,1-.637.618,2.169,2.169,0,0,1-.628.366.989.989,0,0,1-.193.039.786.786,0,0,1-.164.039,1.309,1.309,0,0,1-.53-.117,1.976,1.976,0,0,1-.491-.25,1.508,1.508,0,0,1-.358-.426.885.885,0,0,1-.154-.5V63.245a.618.618,0,0,0-.039-.211.331.331,0,0,0-.221-.135,8.632,8.632,0,0,0-.954-.1c-.3-.019-.6-.039-.9-.039a10.888,10.888,0,0,0-3.124.446,12,12,0,0,0-2.673,1.214,9.96,9.96,0,0,0-2.16,1.755,11.6,11.6,0,0,0-1.621,2.162,10.76,10.76,0,0,0-1.012,2.334,8.231,8.231,0,0,0-.348,2.315,4.118,4.118,0,0,0,.358,1.66,5.493,5.493,0,0,0,.983,1.446m-.463-5.247a9.8,9.8,0,0,1,.964-2.219,10.954,10.954,0,0,1,1.533-2.043,9.766,9.766,0,0,1,2.055-1.7,10.886,10.886,0,0,1,2.537-1.157,10.031,10.031,0,0,1,3-.426c.252,0,.493.02.743.039s.512.059.782.078q-.015,2.113-.029,3.3c-.01.773-.01,1.351-.01,1.718v.714a9.711,9.711,0,0,1-1.224,3.3,11,11,0,0,1-2.008,2.43,10.031,10.031,0,0,1-2.3,1.525,6.158,6.158,0,0,1-2.035.579h-.154a4.028,4.028,0,0,1-1.658-.348,4.19,4.19,0,0,1-1.314-.907,4.405,4.405,0,0,1-.887-1.253,3.39,3.39,0,0,1-.317-1.408,8.3,8.3,0,0,1,.317-2.219" transform="translate(31.333 42.649)"/>
        <rect id="Rectángulo_36527" data-name="Rectángulo 36527" width="44.139" height="151.537" transform="translate(335.68 210.861)" fill="#0095d9"/>
        <rect id="Rectángulo_36528" data-name="Rectángulo 36528" width="44.139" height="55.889" transform="translate(335.68 124.067)" fill="#0095d9"/>
        <path id="Trazado_118153" data-name="Trazado 118153" d="M222.5,125.9a6.343,6.343,0,0,0,1.756.927,7.038,7.038,0,0,0,2.141.328h.066a5.937,5.937,0,0,0,2.5-.54,6.694,6.694,0,0,0,2.114-1.466,7.18,7.18,0,0,0,1.464-2.141,6.081,6.081,0,0,0,.54-2.528v-.174a3.2,3.2,0,0,0-1.214-2.6,4.059,4.059,0,0,0-2.721-.946,6.348,6.348,0,0,0-1.186.115l-.106-.057-.029-.057.029-.1c.723-.657,1.359-1.235,1.91-1.7.54-.481.993-.887,1.378-1.2.995-.964,1.486-1.544,1.486-1.794,0-.078-.078-.117-.231-.117h-8.836a.256.256,0,0,0-.231.27c0,.174.068.27.213.27H231.4l.086.057.02.154-.02.078q-.36.377-1.012.985c-.436.385-.956.849-1.593,1.37a26.4,26.4,0,0,0-2.547,2.489.3.3,0,0,0-.039.154c0,.135.069.213.223.213a.564.564,0,0,0,.164-.059,6.4,6.4,0,0,1,2.469-.559,3.556,3.556,0,0,1,2.4.829,2.747,2.747,0,0,1,1.012,2.2v.1a5.728,5.728,0,0,1-.5,2.373,6.689,6.689,0,0,1-1.331,1.986,6.365,6.365,0,0,1-1.93,1.371,5.671,5.671,0,0,1-2.334.5H226.4a5.846,5.846,0,0,1-3.484-1.14,4.5,4.5,0,0,1-1.079-1.2,2.593,2.593,0,0,1-.415-1.408,2.552,2.552,0,0,1,.995-2.16c.123-.135.193-.213.193-.252,0-.193-.078-.289-.26-.289a.7.7,0,0,0-.106.02v-.02l-.049.057a3.051,3.051,0,0,0-1.292,2.643,3.163,3.163,0,0,0,.434,1.64,4.606,4.606,0,0,0,1.167,1.37m-18.587-.307a4.814,4.814,0,0,0,1.456,1.022,4.425,4.425,0,0,0,1.832.366h.223a5.437,5.437,0,0,0,1.851-.444,8.091,8.091,0,0,0,2.074-1.216,10.242,10.242,0,0,0,1.959-1.929,9.644,9.644,0,0,0,1.466-2.586v4.438a1.322,1.322,0,0,0,.174.655,1.811,1.811,0,0,0,.453.561,1.887,1.887,0,0,0,.579.385,1.333,1.333,0,0,0,.637.155h.106a1.807,1.807,0,0,0,.926-.252,3.268,3.268,0,0,0,.858-.655,6,6,0,0,0,.753-.946c.231-.348.442-.694.645-1.062v-.095a.259.259,0,0,0-.086-.194.288.288,0,0,0-.2-.1.143.143,0,0,0-.117.039c-.047.019-.076.057-.095.135-.135.27-.3.539-.473.811a7.1,7.1,0,0,1-.551.752,4.645,4.645,0,0,1-.618.618,2.447,2.447,0,0,1-.606.346c-.078.02-.135.02-.194.039a.424.424,0,0,1-.154.02,1.628,1.628,0,0,1-.522-.1,1.993,1.993,0,0,1-.471-.25,1.421,1.421,0,0,1-.356-.405.92.92,0,0,1-.135-.5V113.091a.977.977,0,0,0-.049-.193.3.3,0,0,0-.223-.135,7.7,7.7,0,0,0-.915-.1c-.3-.02-.588-.02-.868-.02a10.312,10.312,0,0,0-3.048.426,10.661,10.661,0,0,0-2.6,1.175,9.94,9.94,0,0,0-2.113,1.718,10.828,10.828,0,0,0-1.572,2.1,10.15,10.15,0,0,0-.985,2.256,8.325,8.325,0,0,0-.336,2.277,3.782,3.782,0,0,0,.346,1.582,4.673,4.673,0,0,0,.956,1.408m-.444-5.094a9.149,9.149,0,0,1,.925-2.162,11.136,11.136,0,0,1,1.5-1.986,10.11,10.11,0,0,1,2-1.658,9.4,9.4,0,0,1,2.489-1.12,9.309,9.309,0,0,1,2.893-.426c.252,0,.493.02.725.039.252.039.5.039.772.078-.019,1.39-.019,2.451-.029,3.222-.01.752-.01,1.311-.01,1.658v.694a9.062,9.062,0,0,1-1.2,3.222,10.064,10.064,0,0,1-1.957,2.353,9.111,9.111,0,0,1-2.229,1.486,5.315,5.315,0,0,1-1.978.561h-.145a4.067,4.067,0,0,1-1.62-.328,4.436,4.436,0,0,1-1.294-.888,3.837,3.837,0,0,1-.848-1.216,3.138,3.138,0,0,1-.309-1.37,7.868,7.868,0,0,1,.309-2.16" transform="translate(139.568 77.05)" fill="#231f20"/>
        <rect id="Rectángulo_36529" data-name="Rectángulo 36529" width="44.141" height="228.05" transform="translate(404.831 134.502)" fill="#004a80"/>
        <rect id="Rectángulo_36530" data-name="Rectángulo 36530" width="44.141" height="55.907" transform="translate(404.831 47.691)" fill="#004a80"/>
        <path id="Trazado_118154" data-name="Trazado 118154" d="M261.666,80.291a.24.24,0,0,0,.164-.057v.02l.039-.057.068-.059a5.423,5.423,0,0,1,1.611-1.061,4.445,4.445,0,0,1,1.716-.348,9.907,9.907,0,0,1,2.4.444A9.766,9.766,0,0,0,270,79.6q1.809,0,2.874-2.373v-.037c0-.174-.088-.252-.26-.252a.212.212,0,0,0-.213.154c-.579,1.351-1.37,2.006-2.4,2.006a9.873,9.873,0,0,1-2.422-.424,10.027,10.027,0,0,0-2.315-.444,4.643,4.643,0,0,0-1.137.135l-.1-.057L264,78.227l.029-.078c4.246-4.224,6.377-7.639,6.377-10.3a2.468,2.468,0,0,0-.995-2.1,3.675,3.675,0,0,0-2.256-.657,6.823,6.823,0,0,0-3.009.752c-1.273.6-1.92,1.39-1.92,2.393q0,1.3,1.8,2.43a.237.237,0,0,0,.145.059c.164,0,.242-.1.242-.29a.242.242,0,0,0-.115-.211c-1.042-.638-1.564-1.294-1.564-1.988,0-.772.54-1.427,1.611-1.967a6.51,6.51,0,0,1,2.807-.676q2.749,0,2.749,2.258,0,4.223-8.22,11.825c-.182.174-.269.309-.269.366,0,.174.076.25.25.25m-16.311-1.986a4.465,4.465,0,0,0,3.2,1.331h.213a4.988,4.988,0,0,0,1.794-.424,8.6,8.6,0,0,0,2.045-1.177,11.937,11.937,0,0,0,1.9-1.871,10.157,10.157,0,0,0,1.429-2.547v4.34a1.3,1.3,0,0,0,.164.638,2.13,2.13,0,0,0,.424.539,2.74,2.74,0,0,0,.578.387,1.508,1.508,0,0,0,.628.154h.1a1.97,1.97,0,0,0,.907-.252,3.889,3.889,0,0,0,.829-.635,7.549,7.549,0,0,0,.733-.927c.223-.346.434-.694.627-1.04v-.1a.258.258,0,0,0-.086-.193.268.268,0,0,0-.184-.1.417.417,0,0,0-.133.039.176.176,0,0,0-.088.135c-.135.269-.289.54-.453.809a7.1,7.1,0,0,1-.54.733,4.19,4.19,0,0,1-.6.579,2.17,2.17,0,0,1-.588.348.485.485,0,0,0-.182.039.534.534,0,0,1-.155.019,1.2,1.2,0,0,1-.512-.1,1.449,1.449,0,0,1-.463-.25,1.253,1.253,0,0,1-.346-.387.873.873,0,0,1-.135-.483v-11.8a.294.294,0,0,0-.049-.174c-.019-.078-.086-.117-.2-.137a7.746,7.746,0,0,0-.9-.095c-.289-.02-.569-.039-.858-.039a10.382,10.382,0,0,0-2.952.424,11.919,11.919,0,0,0-2.545,1.138A10.3,10.3,0,0,0,246.9,68.91a12.225,12.225,0,0,0-1.523,2.045,11,11,0,0,0-.964,2.2,8.274,8.274,0,0,0-.318,2.2,3.928,3.928,0,0,0,.336,1.582,4.931,4.931,0,0,0,.927,1.37m-.434-4.977a9.469,9.469,0,0,1,.905-2.1,11.1,11.1,0,0,1,1.457-1.93,10.183,10.183,0,0,1,1.949-1.62,9.711,9.711,0,0,1,2.412-1.081,9.588,9.588,0,0,1,2.836-.426c.24,0,.473.02.694.039.241.041.491.041.763.078-.02,1.351-.029,2.391-.039,3.126s-.01,1.292-.01,1.64v.674a8.733,8.733,0,0,1-1.159,3.107,9.778,9.778,0,0,1-1.9,2.315,8.953,8.953,0,0,1-2.18,1.447,5.329,5.329,0,0,1-1.919.539h-.154a3.526,3.526,0,0,1-1.564-.328,4.12,4.12,0,0,1-2.092-2.045,3.056,3.056,0,0,1-.309-1.331,7.863,7.863,0,0,1,.309-2.1" transform="translate(168.139 44.836)" fill="#231f20"/>
        <rect id="Rectángulo_36531" data-name="Rectángulo 36531" width="44.141" height="170.675" transform="translate(269.469 191.144)" fill="#6ccff6"/>
        <rect id="Rectángulo_36532" data-name="Rectángulo 36532" width="44.141" height="55.907" transform="translate(269.469 104.331)" fill="#6ccff6"/>
        <path id="Trazado_118155" data-name="Trazado 118155" d="M183.185,103.665a.239.239,0,0,0,.106-.02h.019a4.863,4.863,0,0,0,1.891-1.118,7.888,7.888,0,0,0,.645-.772c.193-.289.405-.579.618-.907.049-.078.1-.154.135-.211.049-.078.1-.135.154-.213l.1-.039.1.039.069.1v12.791l-.088.1h-3.183a.248.248,0,0,0-.26.27c0,.172.076.27.221.27h7.35c.164-.039.242-.117.242-.27,0-.194-.068-.27-.221-.27h-3.4l-.086-.1V99.595c0-.27,0-.5.019-.714V98.8c0-.193-.086-.289-.26-.289-.125,0-.2.059-.252.213h-.019c-.328.559-.627,1.061-.915,1.484a13.5,13.5,0,0,1-.85,1.2,8.586,8.586,0,0,1-.925.944,6.143,6.143,0,0,1-1.177.772H183.2a.238.238,0,0,0-.223.252c0,.193.078.289.213.289m-17.007,9.01a4.748,4.748,0,0,0,1.486,1.022,4.421,4.421,0,0,0,1.891.387h.23a5.312,5.312,0,0,0,1.9-.444,9.485,9.485,0,0,0,2.141-1.255,10.908,10.908,0,0,0,2-1.967,10.034,10.034,0,0,0,1.515-2.682v4.573a1.314,1.314,0,0,0,.174.676,2.024,2.024,0,0,0,.463.578,3.544,3.544,0,0,0,.6.405,1.712,1.712,0,0,0,.655.155h.106a1.955,1.955,0,0,0,.954-.272,3.921,3.921,0,0,0,.888-.674,6.683,6.683,0,0,0,.762-.966c.231-.346.454-.733.665-1.1V111a.255.255,0,0,0-.086-.174.238.238,0,0,0-.2-.1.34.34,0,0,0-.135.019c-.049.02-.068.078-.1.155a9.139,9.139,0,0,1-.483.829,6.881,6.881,0,0,1-.569.79,3.92,3.92,0,0,1-.616.6,2.075,2.075,0,0,1-.647.366c-.068.02-.135.039-.193.059-.068,0-.106.019-.145.019a1.236,1.236,0,0,1-.53-.115,1.886,1.886,0,0,1-.5-.252,1.605,1.605,0,0,1-.366-.424,1.048,1.048,0,0,1-.144-.5V99.826a.4.4,0,0,0-.049-.193c-.02-.078-.1-.135-.223-.155a8.32,8.32,0,0,0-.944-.1c-.3-.02-.6-.02-.888-.02a10.345,10.345,0,0,0-3.134.446,11.31,11.31,0,0,0-2.672,1.2,10.77,10.77,0,0,0-2.162,1.755,11.834,11.834,0,0,0-1.611,2.16,10.3,10.3,0,0,0-1.012,2.336,8.331,8.331,0,0,0-.348,2.315,4.133,4.133,0,0,0,.348,1.658,5.227,5.227,0,0,0,.983,1.447m-.453-5.229a9.4,9.4,0,0,1,.956-2.238,11.191,11.191,0,0,1,1.533-2.045,10.361,10.361,0,0,1,2.054-1.7,10.706,10.706,0,0,1,2.547-1.157,9.889,9.889,0,0,1,2.991-.426c.25,0,.491.019.741.039s.512.057.792.078c-.02,1.427-.039,2.527-.039,3.3s-.01,1.351-.01,1.718v.714a9.306,9.306,0,0,1-1.224,3.3,10.539,10.539,0,0,1-2.016,2.43,9.456,9.456,0,0,1-2.287,1.525,6.078,6.078,0,0,1-2.025.578h-.164a3.98,3.98,0,0,1-1.648-.346,4.256,4.256,0,0,1-1.322-.907,4.164,4.164,0,0,1-.878-1.255,3.247,3.247,0,0,1-.328-1.407,7.718,7.718,0,0,1,.328-2.2" transform="translate(113.553 67.86)"/>
      </g>
    </g>
  </g>
</svg>
