<svg xmlns="http://www.w3.org/2000/svg" xmlns:xlink="http://www.w3.org/1999/xlink" width="648" height="491" viewBox="0 0 648 491">
  <defs>
    <filter id="Rectángulo_36534" x="0" y="0" width="648" height="491" filterUnits="userSpaceOnUse">
      <feOffset dy="3" input="SourceAlpha"/>
      <feGaussianBlur stdDeviation="3" result="blur"/>
      <feFlood flood-opacity="0.161"/>
      <feComposite operator="in" in2="blur"/>
      <feComposite in="SourceGraphic"/>
    </filter>
    <clipPath id="clip-path">
      <rect id="Rectángulo_36535" data-name="Rectángulo 36535" width="535.601" height="328.658" fill="none"/>
    </clipPath>
  </defs>
  <g id="Grupo_141345" data-name="Grupo 141345" transform="translate(-9697 11254)">
    <g transform="matrix(1, 0, 0, 1, 9697, -11254)" filter="url(#Rectángulo_36534)">
      <rect id="Rectángulo_36534-2" data-name="Rectángulo 36534" width="630" height="473" rx="35" transform="translate(9 6)" fill="#fff"/>
    </g>
    <g id="Grupo_141262" data-name="Grupo 141262" transform="translate(9766 -11175.832)">
      <path id="Trazado_118156" data-name="Trazado 118156" d="M19.911,0V19.913l16.239,9.817,15.416-9.817V0Z" transform="translate(210.871)" fill="#6ccff6"/>
      <path id="Trazado_118157" data-name="Trazado 118157" d="M26.769,0V19.913l16.216,9.817,15.439-9.817V0Z" transform="translate(283.503)" fill="#16325c"/>
      <path id="Trazado_118158" data-name="Trazado 118158" d="M33.763,0V19.913L50,29.731l15.416-9.817V0Z" transform="translate(357.584)" fill="#0095d9"/>
      <path id="Trazado_118159" data-name="Trazado 118159" d="M40.7,0V19.913l16.25,9.817,15.427-9.817V0Z" transform="translate(430.998)" fill="#5888a5"/>
      <path id="Trazado_118160" data-name="Trazado 118160" d="M30.248,0l-.023,19.913,16.25,9.817L61.9,19.913V0Z" transform="translate(320.103)" fill="#004a80"/>
      <path id="Trazado_118161" data-name="Trazado 118161" d="M.639,5.1V45.873H347.553L360.2,24.963,347.553,5.1Z" transform="translate(6.768 53.969)" fill="#004a80"/>
      <path id="Trazado_118162" data-name="Trazado 118162" d="M.639,24.837V65.614h387.25l12.646-19.542L387.889,24.837Z" transform="translate(6.768 263.048)" fill="#0095d9"/>
      <path id="Trazado_118163" data-name="Trazado 118163" d="M.639,19.9V60.668H307.113L319.77,40.129,307.113,19.9Z" transform="translate(6.768 210.785)" fill="#16325c"/>
      <path id="Trazado_118164" data-name="Trazado 118164" d="M.558,55.743H468.933l12.646-21.559L468.933,14.989.558,14.966Z" transform="translate(5.91 158.505)" fill="#5888a5"/>
      <path id="Trazado_118165" data-name="Trazado 118165" d="M.639,10.032V50.786H227.472l12.634-19.9L227.472,10.032Z" transform="translate(6.768 106.251)" fill="#6ccff6"/>
      <path id="Trazado_118166" data-name="Trazado 118166" d="M14.718,2.376v7.731H8.61Zm-7.65,8.473h7.65v3.106h.719V10.849h1.287v-.742H15.437V.406Z" transform="translate(74.856 4.299)" fill="#939598"/>
      <g id="Grupo_141261" data-name="Grupo 141261" transform="translate(0 0.005)">
        <g id="Grupo_141260" data-name="Grupo 141260" clip-path="url(#clip-path)">
          <path id="Trazado_118167" data-name="Trazado 118167" d="M6.758.407A6.769,6.769,0,1,1,0,7.188,6.782,6.782,0,0,1,6.758.407m0,12.819A6.05,6.05,0,1,0,.72,7.188a6.055,6.055,0,0,0,6.039,6.039" transform="translate(0.011 4.305)" fill="#939598"/>
          <path id="Trazado_118168" data-name="Trazado 118168" d="M3.684,4.023A4.119,4.119,0,0,1,7.718.407a4.117,4.117,0,0,1,4.068,4.057,3.881,3.881,0,0,1-1.032,2.7L5.388,13.226h6.421v.719H4v-.209l6.224-7.07a3.32,3.32,0,0,0,.846-2.2,3.4,3.4,0,0,0-3.35-3.338A3.321,3.321,0,0,0,4.4,4.209Z" transform="translate(39.017 4.305)" fill="#939598"/>
          <path id="Trazado_118169" data-name="Trazado 118169" d="M15.861.406h.9L13.311,5.46A4.1,4.1,0,0,1,14.991,5.1a4.54,4.54,0,0,1,4.428,4.462,4.434,4.434,0,0,1-8.867-.023,4.28,4.28,0,0,1,.777-2.492ZM11.247,9.5a3.8,3.8,0,0,0,3.732,3.732,3.7,3.7,0,0,0,.012-7.395A3.792,3.792,0,0,0,11.908,7.43,3.728,3.728,0,0,0,11.247,9.5" transform="translate(111.755 4.294)" fill="#939598"/>
          <path id="Trazado_118170" data-name="Trazado 118170" d="M18.431.407a2.7,2.7,0,0,1,1.5,4.961,4.477,4.477,0,0,1,2.921,4.161,4.422,4.422,0,1,1-8.844,0,4.466,4.466,0,0,1,2.909-4.161A2.713,2.713,0,0,1,18.431.407m0,12.819a3.7,3.7,0,1,0-3.7-3.7,3.7,3.7,0,0,0,3.7,3.7m0-8.125A1.988,1.988,0,0,0,20.4,3.108a1.982,1.982,0,1,0-3.964,0A1.986,1.986,0,0,0,18.431,5.1" transform="translate(148.304 4.305)" fill="#939598"/>
          <path id="Trazado_118171" data-name="Trazado 118171" d="M17.179,13.945h.73V.407l-.73,1.252ZM25.582.407a6.769,6.769,0,1,0,6.781,6.781A6.787,6.787,0,0,0,25.582.407m0,12.819a6.05,6.05,0,1,1,6.062-6.039,6.05,6.05,0,0,1-6.062,6.039" transform="translate(181.94 4.305)" fill="#939598"/>
          <path id="Trazado_118172" data-name="Trazado 118172" d="M20.863,13.945h.719V.407l-.719,1.252Zm3.327-.719,5.39-6.062a4.046,4.046,0,0,0,1.032-2.7,4.076,4.076,0,0,0-8.125-.44l.719.185a3.349,3.349,0,0,1,6.688.255,3.3,3.3,0,0,1-.846,2.2l-6.236,7.07v.209h7.824v-.719Z" transform="translate(220.957 4.305)" fill="#fff"/>
          <path id="Trazado_118173" data-name="Trazado 118173" d="M24.249,13.956h.719V.406l-.719,1.252Zm9.968-3.848V.406L25.86,10.849H33.5v3.106h.719V10.849h1.321v-.742Zm-.719,0H27.39L33.5,2.376Z" transform="translate(256.817 4.294)" fill="#939598"/>
          <path id="Trazado_118174" data-name="Trazado 118174" d="M27.732,13.945h.742V.407l-.742,1.252ZM33.817,5.09a4.328,4.328,0,0,0-1.7.359L35.567.407h-.9l-4.52,6.642a4.316,4.316,0,0,0-.765,2.48,4.422,4.422,0,0,0,8.844.023,4.52,4.52,0,0,0-4.4-4.462m-.012,8.137a3.772,3.772,0,0,1-3.732-3.721,3.564,3.564,0,0,1,.661-2.086,3.8,3.8,0,0,1,3.083-1.6A3.744,3.744,0,0,1,37.5,9.529a3.7,3.7,0,0,1-3.7,3.7" transform="translate(293.705 4.305)" fill="#fff"/>
          <path id="Trazado_118175" data-name="Trazado 118175" d="M31.183,13.945H31.9V.407l-.719,1.252Zm7.569-8.577a2.731,2.731,0,0,0,1.194-2.26,2.691,2.691,0,0,0-2.712-2.7,2.7,2.7,0,0,0-1.5,4.961,4.487,4.487,0,0,0-2.932,4.161,4.434,4.434,0,0,0,8.867,0,4.493,4.493,0,0,0-2.921-4.161m-3.489-2.26a1.982,1.982,0,1,1,3.964,0A1.993,1.993,0,0,1,37.233,5.1a1.966,1.966,0,0,1-1.97-1.994m1.97,10.119a3.693,3.693,0,0,1-3.7-3.7,3.709,3.709,0,1,1,7.418,0,3.705,3.705,0,0,1-3.721,3.7" transform="translate(330.254 4.305)" fill="#fff"/>
          <path id="Trazado_118176" data-name="Trazado 118176" d="M41.181,7.164a3.934,3.934,0,0,0,1.032-2.7,4.063,4.063,0,0,0-8.1-.44l.719.185a3.328,3.328,0,0,1,3.3-3.083,3.389,3.389,0,0,1,3.361,3.338,3.3,3.3,0,0,1-.846,2.2l-6.236,7.07v.209h7.847v-.719H35.792ZM49.921.407a6.769,6.769,0,1,0,6.792,6.781A6.782,6.782,0,0,0,49.921.407m0,12.819a6.05,6.05,0,1,1,6.074-6.039,6.062,6.062,0,0,1-6.074,6.039" transform="translate(361.264 4.305)" fill="#fff"/>
          <path id="Trazado_118177" data-name="Trazado 118177" d="M44.889,7.164a4.033,4.033,0,0,0,1.02-2.7,4.069,4.069,0,0,0-8.114-.44l.719.185a3.328,3.328,0,0,1,3.3-3.083A3.4,3.4,0,0,1,45.19,4.464a3.2,3.2,0,0,1-.858,2.2L38.1,13.736v.209h7.835v-.719H39.5Zm3.64,6.062,5.39-6.062a3.922,3.922,0,0,0,1.02-2.7,4.063,4.063,0,0,0-8.1-.44l.73.185a3.328,3.328,0,0,1,3.3-3.083,3.4,3.4,0,0,1,3.35,3.338,3.344,3.344,0,0,1-.835,2.2l-6.236,7.07v.209h7.824v-.719Z" transform="translate(400.281 4.305)" fill="#939598"/>
          <path id="Trazado_118178" data-name="Trazado 118178" d="M48.273,7.163a3.984,3.984,0,0,0,1.02-2.689,4.069,4.069,0,0,0-8.114-.44l.719.174a3.325,3.325,0,0,1,3.3-3.072,3.392,3.392,0,0,1,3.373,3.338,3.234,3.234,0,0,1-.846,2.191L41.48,13.747v.209h7.835v-.719H42.883Zm10.316,2.944V.406L50.22,10.849h7.627v3.106h.742V10.849h1.3v-.742Zm-.742,0H51.773l6.074-7.731Z" transform="translate(436.121 4.294)" fill="#fff"/>
          <path id="Trazado_118179" data-name="Trazado 118179" d="M51.768,7.164a4.033,4.033,0,0,0,1.02-2.7,4.076,4.076,0,0,0-8.125-.44l.742.185A3.317,3.317,0,0,1,48.7,1.126a3.41,3.41,0,0,1,3.385,3.338,3.357,3.357,0,0,1-.846,2.2l-6.259,7.07v.209h7.847v-.719H46.378ZM58.155,5.09a4.232,4.232,0,0,0-1.692.359L59.9.407h-.881L54.5,7.049a4.257,4.257,0,0,0-.788,2.48A4.436,4.436,0,0,0,58.1,13.945a4.489,4.489,0,0,0,4.486-4.393A4.54,4.54,0,0,0,58.155,5.09m-.012,8.137a3.785,3.785,0,0,1-3.721-3.721,3.722,3.722,0,0,1,.649-2.086,3.789,3.789,0,0,1,3.083-1.6,3.743,3.743,0,0,1,3.686,3.709,3.7,3.7,0,0,1-3.7,3.7" transform="translate(473.019 4.305)" fill="#939598"/>
        </g>
      </g>
    </g>
  </g>
</svg>
