<svg xmlns="http://www.w3.org/2000/svg" xmlns:xlink="http://www.w3.org/1999/xlink" width="315" height="208.55" viewBox="0 0 315 208.55">
  <defs>
    <clipPath id="clip-path">
      <rect id="Rect치ngulo_36553" data-name="Rect치ngulo 36553" width="178.733" height="199.438" transform="translate(0 0)" fill="none"/>
    </clipPath>
  </defs>
  <g id="Grupo_141348" data-name="Grupo 141348" transform="translate(-1020 -1575.45)">
    <g id="Grupo_141283" data-name="Grupo 141283" transform="translate(20)">
      <g id="Grupo_141276" data-name="Grupo 141276" transform="translate(1080.189 1575.45)">
        <g id="Grupo_141275" data-name="Grupo 141275" transform="translate(0 0)" clip-path="url(#clip-path)">
          <path id="Trazado_118189" data-name="Trazado 118189" d="M256.819,273.736l-114.682-32.31a4.23,4.23,0,0,1-2.916-5.2l42.531-150.96a4.23,4.23,0,0,1,5.2-2.916l114.681,32.31a4.23,4.23,0,0,1,2.916,5.2L262.022,270.82a4.23,4.23,0,0,1-5.2,2.916" transform="translate(-125.978 -74.456)" fill="#3b82f4"/>
          <path id="Trazado_118190" data-name="Trazado 118190" d="M910.253,430.883,854.577,415.2a3.12,3.12,0,0,1,1.692-6.006l55.676,15.686a3.12,3.12,0,0,1-1.692,6.006" transform="translate(-772.102 -370.581)" fill="#b3cef6"/>
          <path id="Trazado_118191" data-name="Trazado 118191" d="M719.835,577.52l-87.7-24.709a3.129,3.129,0,0,1-2.157-3.849h0a3.129,3.129,0,0,1,3.849-2.157l87.7,24.709a3.12,3.12,0,1,1-1.692,6.006" transform="translate(-570.59 -495.245)" fill="#b3cef6"/>
          <path id="Trazado_118192" data-name="Trazado 118192" d="M678.438,724.454l-87.7-24.709a3.12,3.12,0,1,1,1.692-6.006l87.7,24.709a3.12,3.12,0,0,1-1.692,6.006" transform="translate(-533.089 -628.353)" fill="#b3cef6"/>
          <path id="Trazado_118193" data-name="Trazado 118193" d="M637.041,871.387l-87.7-24.709a3.12,3.12,0,1,1,1.692-6.006l87.7,24.709a3.12,3.12,0,0,1-1.692,6.006" transform="translate(-495.587 -761.459)" fill="#b3cef6"/>
          <path id="Trazado_118194" data-name="Trazado 118194" d="M595.645,1018.321l-87.7-24.709a3.129,3.129,0,0,1-2.157-3.849h0a3.129,3.129,0,0,1,3.849-2.157l87.7,24.709a3.12,3.12,0,0,1-1.692,6.006" transform="translate(-458.086 -894.567)" fill="#b3cef6"/>
          <path id="Trazado_118195" data-name="Trazado 118195" d="M554.248,1165.254l-87.7-24.709a3.12,3.12,0,1,1,1.692-6.006l87.7,24.709a3.12,3.12,0,0,1-1.692,6.006" transform="translate(-420.585 -1027.673)" fill="#b3cef6"/>
          <path id="Trazado_118196" data-name="Trazado 118196" d="M512.851,1312.188l-87.7-24.709a3.12,3.12,0,1,1,1.692-6.006l87.7,24.709a3.12,3.12,0,0,1-1.692,6.006" transform="translate(-383.083 -1160.781)" fill="#b3cef6"/>
          <path id="Trazado_118197" data-name="Trazado 118197" d="M471.455,1459.121l-87.7-24.709a3.129,3.129,0,0,1-2.157-3.849h0a3.129,3.129,0,0,1,3.849-2.157l87.7,24.709a3.12,3.12,0,1,1-1.692,6.006" transform="translate(-345.583 -1293.887)" fill="#b3cef6"/>
          <path id="Trazado_118198" data-name="Trazado 118198" d="M430.058,1606.055l-87.7-24.709a3.12,3.12,0,0,1,1.692-6.006l87.7,24.709a3.12,3.12,0,0,1-1.692,6.006" transform="translate(-308.082 -1426.995)" fill="#b3cef6"/>
          <path id="Trazado_118199" data-name="Trazado 118199" d="M119.494,10.066,23.292.039A6.859,6.859,0,0,0,15.758,6.15L.037,156.982a6.86,6.86,0,0,0,6.112,7.534l116.983,12.193a6.86,6.86,0,0,0,7.534-6.112L144.22,40.546Z" transform="translate(0 -0.001)" fill="#fff"/>
          <path id="Trazado_118200" data-name="Trazado 118200" d="M1246.485,127.736a6.859,6.859,0,0,0,6.111,7.534l20.78,2.166-24.726-30.48Z" transform="translate(-1129.157 -96.892)" fill="#ededed"/>
          <path id="Trazado_118201" data-name="Trazado 118201" d="M1300.376,405.733l21.49,5.862.365-3.5Z" transform="translate(-1178.01 -367.553)" fill="#cecece"/>
          <path id="Trazado_118203" data-name="Trazado 118203" d="M366.021,527.53l-97.257-10.137a2.9,2.9,0,0,1,.6-5.768l97.257,10.137a2.9,2.9,0,0,1-.6,5.768" transform="translate(-241.119 -463.467)" fill="#e4ecf9"/>
          <path id="Trazado_118204" data-name="Trazado 118204" d="M349.759,683.555,252.5,673.418a2.9,2.9,0,0,1,.6-5.768l97.257,10.137a2.9,2.9,0,1,1-.6,5.768" transform="translate(-226.387 -604.81)" fill="#e4ecf9"/>
          <path id="Trazado_118205" data-name="Trazado 118205" d="M333.5,839.579l-97.257-10.137a2.9,2.9,0,0,1,.6-5.768L334.1,833.811a2.9,2.9,0,1,1-.6,5.768" transform="translate(-211.656 -746.152)" fill="#e4ecf9"/>
          <path id="Trazado_118206" data-name="Trazado 118206" d="M317.235,995.6l-97.257-10.137a2.9,2.9,0,0,1,.6-5.768l97.257,10.137a2.9,2.9,0,0,1-.6,5.768" transform="translate(-196.924 -887.495)" fill="#e4ecf9"/>
          <path id="Trazado_118207" data-name="Trazado 118207" d="M300.973,1151.628l-97.257-10.137a2.9,2.9,0,1,1,.6-5.768l97.257,10.137a2.9,2.9,0,0,1-.6,5.768" transform="translate(-182.191 -1028.837)" fill="#e4ecf9"/>
          <path id="Trazado_118208" data-name="Trazado 118208" d="M284.711,1307.652l-97.257-10.137a2.9,2.9,0,0,1,.6-5.768l97.257,10.137a2.908,2.908,0,0,1,2.583,3.185h0a2.908,2.908,0,0,1-3.185,2.583" transform="translate(-167.46 -1170.179)" fill="#e4ecf9"/>
          <path id="Trazado_118209" data-name="Trazado 118209" d="M703.668,1535.971a.555.555,0,0,0-.91-.438,9.229,9.229,0,0,1-1.656,1.141l-.868.346q-.863.455-.964-.72a.547.547,0,0,0-.729-.815,3.683,3.683,0,0,1-2.508,1.171,3.049,3.049,0,0,1-.875-.3,3.684,3.684,0,0,0,.543-.51.554.554,0,0,0,.031-.551,6.854,6.854,0,0,0-.6-1.135,20.807,20.807,0,0,0,5.1-8.011.551.551,0,0,0-.883-.582,17.1,17.1,0,0,0-4.968,5.529,4.023,4.023,0,0,0-.619,2.521,2.5,2.5,0,0,0,.073.269,17.5,17.5,0,0,1-1.688,1.4,9.09,9.09,0,0,1-2.585,1.342c-.673.21-1.683.538-2.146-.118,1.527-.856,2.76-2.068,2.1-3.579-.988-2.273-3.349,1.156-3.472,3.07a12.511,12.511,0,0,1-2.322.79.547.547,0,0,0,.231,1.069,15.564,15.564,0,0,0,2.346-.8c1.295,2.282,5.39-.053,6.771-1.091.411-.309.819-.649,1.22-1.008.314.561.335.467-.448,1a.556.556,0,0,0,.075,1,5.591,5.591,0,0,0,2.674.789,3.033,3.033,0,0,0,.851-.247.537.537,0,0,0,.22.371c1.5.983,3.4.169,4.847-.8a7.291,7.291,0,0,1-2.5,4.452c-2.065,1.7-4.716,1.284-7.137.809-.682-.134-1.037.9-.349,1.036,2.641.518,5.467.958,7.8-.712a8.164,8.164,0,0,0,3.344-6.691m-15.839-1.988c.847-.655.269.587-.027.891a3.8,3.8,0,0,1-.635.5,2.991,2.991,0,0,1,.662-1.394m7.12-1.538a8.04,8.04,0,0,1,1.467-2.486,15.976,15.976,0,0,1,1.95-2.151,20.947,20.947,0,0,1-3.484,5.028,3.4,3.4,0,0,1,.067-.391" transform="translate(-619.009 -1381.906)" fill="#e4ecf9"/>
          <path id="Trazado_118210" data-name="Trazado 118210" d="M1028.057,1563.5a10.473,10.473,0,1,1,11.986-8.7,10.485,10.485,0,0,1-11.986,8.7m2.928-18.451a8.209,8.209,0,1,0,6.821,9.394,8.218,8.218,0,0,0-6.821-9.394" transform="translate(-923.315 -1397.512)" fill="#e4ecf9"/>
          <path id="Trazado_118211" data-name="Trazado 118211" d="M1095.724,1575.575l-.073.011a17.683,17.683,0,0,0-2.485.6l-1.181.384-1.133.45a32.625,32.625,0,0,0-4.3,2.123,35.231,35.231,0,0,0-3.963,2.583c-.714.52-1.4,1.075-2.076,1.648-.384-.353-.78-.7-1.192-1.028-.55-.482-1.174-.912-1.781-1.353a18.066,18.066,0,0,0-1.994-1.2l-.066-.033a.151.151,0,0,0-.192.221c1.611,2.358,3.273,4.68,4.935,7a.28.28,0,0,0,.39.062c2.569-1.821,5.125-3.661,7.649-5.546l3.8-2.805c1.274-.926,2.512-1.9,3.77-2.848a.151.151,0,0,0-.115-.27" transform="translate(-974.084 -1427.311)" fill="#52d1bd"/>
        </g>
      </g>
      <g id="Grupo_141281" data-name="Grupo 141281" transform="translate(1000 1580.669)">
        <rect id="Rect치ngulo_36563" data-name="Rect치ngulo 36563" width="315" height="203" transform="translate(0 0.331)" fill="none"/>
      </g>
    </g>
    <text id="Artefacto" transform="matrix(0.995, 0.105, -0.105, 0.995, 1142.644, 1595.632)" fill="#26a69a" font-size="16" font-family="SegoeUI, Segoe UI"><tspan x="0" y="17">Artefacto</tspan></text>
  </g>
</svg>
