<?xml version="1.0" encoding="utf-8"?>
<!-- Generator: Adobe Illustrator 25.4.2, SVG Export Plug-In . SVG Version: 6.00 Build 0)  -->
<svg version="1.1" id="Capa_1" xmlns="http://www.w3.org/2000/svg" xmlns:xlink="http://www.w3.org/1999/xlink" x="0px" y="0px"
	 viewBox="0 0 315 152.6" style="enable-background:new 0 0 315 152.6;" xml:space="preserve">
<style type="text/css">
	.st0{fill:#305399;}
	.st1{fill:#3C66AA;}
	.st2{fill:#284B84;}
	.st3{fill:#7DB5DB;}
	.st4{fill:#587BC9;}
	.st5{fill:#759BD3;}
	.st6{fill:#4B71B5;}
	.st7{fill:#FFFFFF;}
	.st8{font-family:'SegoeUIBlack';}
	.st9{font-size:18px;}
</style>
<g id="Grupo_141349" transform="translate(-1020 -2027.38)">
	<g id="Grupo_141280" transform="translate(1020 2027.38)">
		<rect id="Rectángulo_36560" y="57.1" class="st0" width="84.1" height="84.1"/>
		<path id="Trazado_118212" class="st1" d="M23.6,30.6L0,57.1h84.1l23.6-26.6H23.6z"/>
		<path id="Trazado_118213" class="st2" d="M84.1,57.1v84.1l23.6-26.6V30.6L84.1,57.1z"/>
		<path id="Trazado_118214" class="st3" d="M166.5,87.8h-70v-2.3h70V87.8z"/>
		<rect id="Rectángulo_36561" x="166.5" y="36.6" class="st4" width="115.9" height="115.9"/>
		<path id="Trazado_118215" class="st5" d="M199.1,0l-32.6,36.6h115.9L315,0H199.1z"/>
		<path id="Trazado_118216" class="st6" d="M315,0l-32.6,36.6v115.9l32.6-36.6V0z"/>
	</g>
	<text transform="matrix(1 0 0 1 1043 2135)" class="st7 st8 st9">Nodo</text>
	<text transform="matrix(1 0 0 1 1221 2135)" class="st7 st8 st9">Nodo</text>
</g>
</svg>
