<?xml version="1.0" encoding="utf-8"?>
<!-- Generator: Adobe Illustrator 25.4.2, SVG Export Plug-In . SVG Version: 6.00 Build 0)  -->
<svg version="1.1" id="Capa_1" xmlns="http://www.w3.org/2000/svg" xmlns:xlink="http://www.w3.org/1999/xlink" x="0px" y="0px"
	 viewBox="0 0 1071 496" style="enable-background:new 0 0 1071 496;" xml:space="preserve">
<style type="text/css">
	.st0{fill:#1565C0;}
	.st1{fill:#4DD0E1;}
	.st2{fill:#CCF3F8;}
	.st3{fill:#FFFFFF;}
	.st4{font-family:'SegoeUIBlack';}
	.st5{font-size:18px;}
	.st6{fill:#12263F;}
	.st7{fill:none;stroke:#1B9CE2;stroke-width:2;}
	.st8{fill:#039BE5;}
</style>
<g id="Grupo_141334" transform="translate(-285 -2326)">
	<g id="Grupo_141303" transform="translate(0 -54)">
		<path id="Rectángulo_36639" class="st0" d="M332.5,2495h95c26.2,0,47.5,21.3,47.5,47.5l0,0c0,26.2-21.3,47.5-47.5,47.5h-95
			c-26.2,0-47.5-21.3-47.5-47.5l0,0C285,2516.3,306.3,2495,332.5,2495z"/>
		<rect id="Rectángulo_36647" x="1125" y="2738" class="st1" width="190" height="60"/>
		<rect id="Rectángulo_36646" x="1125" y="2798" class="st2" width="190" height="78"/>
		<text transform="matrix(1 0 0 1 348 2550)" class="st3 st4 st5">Cliente</text>
		<text transform="matrix(1 0 0 1 1168 2775)" class="st6 st4 st5">Subsistema 3</text>
		<path id="Trazado_118357" class="st7" d="M475,2542.5h151.4v87.9h376.8v-193.8h134.8"/>
		<rect id="Rectángulo_36640" x="705" y="2543" class="st2" width="190" height="156"/>
		<rect id="Rectángulo_36641" x="705" y="2432" class="st1" width="190" height="95"/>
		<text transform="matrix(1 0 0 1 762 2487)" class="st6 st4 st5">Fachada</text>
		<text transform="matrix(1 0 0 1 736 2606)" class="st6 st4 st5">Operación 1()</text>
		<text transform="matrix(1 0 0 1 736 2631)" class="st6 st4 st5"> Operación 2()</text>
		<text transform="matrix(1 0 0 1 736 2656)" class="st6 st4 st5"> Operación 3()</text>
		<rect id="Rectángulo_36642" x="1125" y="2380" class="st1" width="190" height="60"/>
		<rect id="Rectángulo_36643" x="1125" y="2440" class="st2" width="190" height="78"/>
		<text transform="matrix(1 0 0 1 1158 2418)" class="st6 st4 st5">Subsistema 1</text>
		<path id="Trazado_118358" class="st7" d="M1125,2819.5h-121.9v-191.1"/>
		<line id="Línea_150" class="st7" x1="1003.5" y1="2630.5" x2="1133.5" y2="2630.5"/>
		<rect id="Rectángulo_36645" x="1125" y="2560" class="st1" width="190" height="60"/>
		<rect id="Rectángulo_36644" x="1125" y="2620" class="st2" width="190" height="78"/>
		<text transform="matrix(1 0 0 1 1158 2593)" class="st6 st4 st5">Subsistema 2</text>
		<path id="Polígono_27" class="st8" d="M893.1,2626.8L893.1,2626.8c2.7-1.5,6,0.5,6,3.5l0,0c0,3.1-3.3,5-6,3.5l0,0
			C890.3,2632.3,890.3,2628.4,893.1,2626.8z"/>
	</g>
</g>
<rect x="185.9" y="158.1" transform="matrix(0.7071 -0.7071 0.7071 0.7071 -59.0868 181.8757)" class="st8" width="8.2" height="8.2"/>
</svg>
