<svg xmlns="http://www.w3.org/2000/svg" xmlns:xlink="http://www.w3.org/1999/xlink" width="295" height="102" viewBox="0 0 295 102">
  <defs>
    <clipPath id="clip-path">
      <rect id="Rect치ngulo_36274" data-name="Rect치ngulo 36274" width="67" height="59" transform="translate(0.001)" fill="#fff"/>
    </clipPath>
  </defs>
  <g id="Grupo_141323" data-name="Grupo 141323" transform="translate(-653 -880)">
    <g id="Grupo_80065" data-name="Grupo 80065" transform="translate(473)">
      <rect id="Rect치ngulo_36015" data-name="Rect치ngulo 36015" width="295" height="102" rx="27" transform="translate(180 880)" fill="#4dd0e1"/>
    </g>
    <text id="Comando" transform="translate(781 938)" fill="#fff" font-size="24" font-family="SegoeUIBlack, Segoe UI"><tspan x="0" y="0">Comando</tspan></text>
    <circle id="Elipse_4791" data-name="Elipse 4791" cx="42" cy="42" r="42" transform="translate(674 888)" fill="#1565c0"/>
    <g id="Grupo_87765" data-name="Grupo 87765" transform="translate(682.999 896)">
      <g id="Grupo_87764" data-name="Grupo 87764" clip-path="url(#clip-path)">
        <path id="Trazado_117033" data-name="Trazado 117033" d="M37.156,78.683h-8.78a1.254,1.254,0,0,1-1.254-1.254V46.2a1.254,1.254,0,0,1,1.254-1.254h8.78a3.955,3.955,0,0,1,3.951,3.951V74.732a3.955,3.955,0,0,1-3.951,3.951M29.63,76.175h7.526A1.444,1.444,0,0,0,38.6,74.732V48.893a1.444,1.444,0,0,0-1.443-1.443H29.63Z" transform="translate(-13.516 -22.397)" fill="#fff"/>
        <path id="Trazado_117034" data-name="Trazado 117034" d="M12.838,78.7H3.276A3.28,3.28,0,0,1,0,75.422V43.8a3.28,3.28,0,0,1,3.276-3.276h9.562A3.28,3.28,0,0,1,16.114,43.8V75.422A3.28,3.28,0,0,1,12.838,78.7M3.276,43.037a.769.769,0,0,0-.768.768V75.422a.769.769,0,0,0,.768.768h9.562a.769.769,0,0,0,.768-.768V43.8a.769.769,0,0,0-.768-.768Z" transform="translate(0 -20.197)" fill="#fff"/>
        <path id="Trazado_117035" data-name="Trazado 117035" d="M70.112,55.532c-2.307,0-4.708-.068-7.26-.206l-.384-.011c-.206-.006-.411-.012-.616-.02-2.445-.092-4.907-.339-7.287-.576-1.062-.106-2.123-.213-3.185-.306a2.766,2.766,0,0,1-.291-.043,1.3,1.3,0,0,1-1.084-1.244V45.414L49.98,35.108c0-.6-.041-1.268-.082-1.971a28.64,28.64,0,0,1-.062-3.551,4.036,4.036,0,0,1,.022-.65,9.114,9.114,0,0,1,.756-2.648,10.867,10.867,0,0,1,2.114-3.063c.381-.452.776-.893,1.17-1.334.451-.5.878-.982,1.285-1.475a28.307,28.307,0,0,0,2.2-3.1c.14-.238.293-.5.444-.764.783-1.365,1.542-2.8,2.32-4.374.016-.031.032-.061.049-.09a17.344,17.344,0,0,0,1.113-7.027A4.9,4.9,0,0,1,66.205,0a4.924,4.924,0,0,1,4.9,4.9A26.96,26.96,0,0,1,69.4,14.031c-.1.4-.186.8-.27,1.194-.12.606-.206,1.151-.259,1.652a13.539,13.539,0,0,0,.06,2.489,1.936,1.936,0,0,0,.783,1.288,1.334,1.334,0,0,0,.132.067l.078.034a2,2,0,0,0,1.1.046q1.179-.26,2.361-.5a30.812,30.812,0,0,1,5.323-.766,25.484,25.484,0,0,1,3.628-.029c.652.045,1.312.118,1.964.219a10.484,10.484,0,0,1,2.954.754A4.817,4.817,0,0,1,89.9,22.9a4.057,4.057,0,0,1,.446,2.405,4.672,4.672,0,0,1-.216.866,6.527,6.527,0,0,1-.472,1.258c-.051.1-.094.2-.134.284a1.257,1.257,0,0,0-.106.6,4.1,4.1,0,0,0,.4.523c.134.156.257.314.374.472l.045.052a5.04,5.04,0,0,1,.891,1.677,5.265,5.265,0,0,1-1.3,5.471,2.088,2.088,0,0,0-.442.885,1.374,1.374,0,0,0,.056.483c.026.073.055.146.09.223a6.46,6.46,0,0,1,.6,2.426c.009.145.013.289.01.434v.051c0,.1-.007.192-.015.287a5.632,5.632,0,0,1-.98,2.769l-.054.074-.026.037c-.071.1-.144.2-.224.3-.03.036-.065.074-.1.112a7.121,7.121,0,0,1-1.046,1.053c-.029.024-.057.049-.084.074l-.026.023a1.937,1.937,0,0,0-.5.717,1.743,1.743,0,0,0-.053.585c.008.066.016.134.03.2a5.523,5.523,0,0,1-1.49,5.194,7.349,7.349,0,0,1-2.027,1.545,9.572,9.572,0,0,1-1.824.7,13.557,13.557,0,0,1-4.473.81q-2.22.016-4.441.009-1.324.032-2.688.032M52.514,52c.764.071,1.532.148,2.3.225,2.343.234,4.765.476,7.134.566.2.008.393.013.589.019l.423.012c3.52.19,6.723.246,9.813.173,1.505,0,2.977,0,4.449-.01a11.071,11.071,0,0,0,3.685-.677c.031-.011.063-.022.094-.031a7.2,7.2,0,0,0,1.391-.524,4.822,4.822,0,0,0,1.339-1.026c.013-.015.027-.028.04-.042a3.007,3.007,0,0,0,.824-2.948c-.033-.161-.052-.312-.068-.461,0-.026-.005-.051-.006-.077a4.249,4.249,0,0,1,.166-1.5,4.4,4.4,0,0,1,1.13-1.741c.019-.02.039-.039.06-.058l.044-.04c.061-.055.122-.11.191-.166a4.764,4.764,0,0,0,.7-.713l.038-.045.058-.062a1.485,1.485,0,0,0,.1-.136l.04-.057.04-.054a3.146,3.146,0,0,0,.532-1.531c.006-.062.006-.109.008-.158,0-.105,0-.186-.006-.266l0-.022a3.952,3.952,0,0,0-.367-1.494,5.018,5.018,0,0,1-.2-.51c-.008-.024-.016-.048-.022-.072a3.819,3.819,0,0,1-.138-1.447,4.38,4.38,0,0,1,.923-2.113c.018-.026.038-.05.058-.075s.034-.043.055-.065c1.217-1.379,1.052-2.389.821-3.027a2.646,2.646,0,0,0-.455-.891L88.25,30.9c-.02-.024-.039-.048-.057-.073-.089-.121-.183-.243-.286-.364a5.305,5.305,0,0,1-.788-1.137,1.174,1.174,0,0,1-.058-.14,3.5,3.5,0,0,1,.117-2.363c.01-.029.022-.056.034-.084.06-.134.123-.272.2-.427a4,4,0,0,0,.3-.806c.009-.035.019-.069.031-.1a2.485,2.485,0,0,0,.117-.436,1.607,1.607,0,0,0-.2-.936c-.011-.021-.021-.042-.031-.064a2.368,2.368,0,0,0-1.356-1.178,8.318,8.318,0,0,0-2.322-.578c-.615-.1-1.2-.161-1.784-.2a23.219,23.219,0,0,0-3.295.03,28.522,28.522,0,0,0-4.952.714c-.814.163-1.584.327-2.354.5a4.513,4.513,0,0,1-2.53-.15c-.061-.024-.1-.04-.137-.057a4.022,4.022,0,0,1-.446-.222,4.429,4.429,0,0,1-1.984-2.977q-.014-.063-.021-.128a16.1,16.1,0,0,1-.073-3.07c.064-.611.161-1.231.3-1.926.086-.411.175-.811.271-1.207a1.274,1.274,0,0,1,.08-.3A24.615,24.615,0,0,0,68.6,4.912a2.411,2.411,0,0,0-2.393-2.4,2.388,2.388,0,0,0-2.39,2.468A19.386,19.386,0,0,1,62.48,13.13c-.01.025-.022.05-.033.074a1.362,1.362,0,0,1-.069.124c-.8,1.611-1.573,3.077-2.377,4.478q-.236.409-.475.814a30.707,30.707,0,0,1-2.407,3.392c-.439.533-.9,1.05-1.351,1.551-.387.433-.776.867-1.149,1.311-.021.024-.042.047-.063.07A8.274,8.274,0,0,0,52.9,27.327a6.559,6.559,0,0,0-.549,1.9,1.626,1.626,0,0,0,0,.293,1.327,1.327,0,0,1,0,.161,26.192,26.192,0,0,0,.058,3.3c.044.74.085,1.439.087,2.113l.026,10.31Zm8.758-39.261h0Z" transform="translate(-24.819 0)" fill="#fff"/>
      </g>
    </g>
  </g>
</svg>
