<svg xmlns="http://www.w3.org/2000/svg" xmlns:xlink="http://www.w3.org/1999/xlink" width="295" height="102" viewBox="0 0 295 102">
  <defs>
    <clipPath id="clip-path">
      <rect id="Rect치ngulo_36273" data-name="Rect치ngulo 36273" width="71.189" height="72.269" fill="#fff"/>
    </clipPath>
  </defs>
  <g id="Grupo_141324" data-name="Grupo 141324" transform="translate(-968 -880)">
    <g id="Grupo_80066" data-name="Grupo 80066" transform="translate(788)">
      <rect id="Rect치ngulo_36015" data-name="Rect치ngulo 36015" width="295" height="102" rx="27" transform="translate(180 880)" fill="#4dd0e1"/>
    </g>
    <text id="Iterador" transform="translate(1115 938)" fill="#fff" font-size="24" font-family="SegoeUIBlack, Segoe UI"><tspan x="0" y="0">Iterador</tspan></text>
    <circle id="Elipse_4792" data-name="Elipse 4792" cx="42" cy="42" r="42" transform="translate(978 888)" fill="#1565c0"/>
    <g id="Grupo_87763" data-name="Grupo 87763" transform="translate(984.405 892.865)">
      <g id="Grupo_87762" data-name="Grupo 87762" clip-path="url(#clip-path)">
        <path id="Trazado_117031" data-name="Trazado 117031" d="M36.223,72.269H34.966a3.341,3.341,0,0,1-3.318-3.356V61.6A25.56,25.56,0,0,1,10.5,40.129H3.318A3.341,3.341,0,0,1,0,36.773V35.5A3.341,3.341,0,0,1,3.318,32.14H10.5A25.561,25.561,0,0,1,31.648,10.667V3.356A3.341,3.341,0,0,1,34.966,0h1.257a3.341,3.341,0,0,1,3.318,3.356v7.311A25.561,25.561,0,0,1,60.687,32.14h7.184A3.341,3.341,0,0,1,71.189,35.5v1.277a3.341,3.341,0,0,1-3.318,3.356H60.687A25.561,25.561,0,0,1,39.541,61.6v7.311a3.341,3.341,0,0,1-3.318,3.356M3.318,33.858a1.621,1.621,0,0,0-1.6,1.638v1.277a1.621,1.621,0,0,0,1.6,1.638h7.933a.859.859,0,0,1,.853.753A23.842,23.842,0,0,0,32.617,60a.859.859,0,0,1,.75.852v8.056a1.621,1.621,0,0,0,1.6,1.638h1.257a1.621,1.621,0,0,0,1.6-1.638V60.857a.859.859,0,0,1,.75-.852A23.842,23.842,0,0,0,59.086,39.164a.859.859,0,0,1,.853-.753h7.933a1.621,1.621,0,0,0,1.6-1.638V35.5a1.621,1.621,0,0,0-1.6-1.638H59.939a.859.859,0,0,1-.853-.753A23.842,23.842,0,0,0,38.573,12.264a.859.859,0,0,1-.75-.852V3.356a1.621,1.621,0,0,0-1.6-1.638H34.966a1.621,1.621,0,0,0-1.6,1.638v8.056a.859.859,0,0,1-.75.852A23.843,23.843,0,0,0,12.1,33.1a.859.859,0,0,1-.853.753ZM38.682,58.032a.859.859,0,0,1-.859-.859V54.337a1.621,1.621,0,0,0-1.6-1.638H34.966a1.621,1.621,0,0,0-1.6,1.638v2.836a.859.859,0,0,1-.987.85A22.106,22.106,0,0,1,14.028,39.394a.859.859,0,0,1,.85-.983h2.793a1.621,1.621,0,0,0,1.6-1.638V35.5a1.621,1.621,0,0,0-1.6-1.638H14.878a.859.859,0,0,1-.85-.983A22.107,22.107,0,0,1,32.379,14.246a.859.859,0,0,1,.987.849v2.837a1.621,1.621,0,0,0,1.6,1.638h1.257a1.621,1.621,0,0,0,1.6-1.638V15.1a.859.859,0,0,1,.987-.849A22.106,22.106,0,0,1,57.161,32.875a.859.859,0,0,1-.85.983H53.519a1.621,1.621,0,0,0-1.6,1.638v1.277a1.621,1.621,0,0,0,1.6,1.638h2.793a.859.859,0,0,1,.85.983A22.107,22.107,0,0,1,38.81,58.023a.848.848,0,0,1-.128.01M34.966,50.98h1.257a3.341,3.341,0,0,1,3.318,3.356v1.812a20.4,20.4,0,0,0,15.752-16.02H53.519A3.341,3.341,0,0,1,50.2,36.773V35.5a3.341,3.341,0,0,1,3.318-3.356h1.774A20.4,20.4,0,0,0,39.541,16.12v1.812a3.341,3.341,0,0,1-3.318,3.356H34.966a3.341,3.341,0,0,1-3.318-3.356V16.12A20.4,20.4,0,0,0,15.9,32.14h1.774A3.341,3.341,0,0,1,20.989,35.5v1.277a3.341,3.341,0,0,1-3.318,3.356H15.9a20.4,20.4,0,0,0,15.752,16.02V54.337a3.341,3.341,0,0,1,3.318-3.356" fill="#fff"/>
        <path id="Trazado_117032" data-name="Trazado 117032" d="M81.261,94.366A11.858,11.858,0,1,1,92.949,82.509,11.787,11.787,0,0,1,81.261,94.366m0-22a10.14,10.14,0,1,0,9.97,10.139,10.067,10.067,0,0,0-9.97-10.139m0,18.34a8.2,8.2,0,1,1,8.09-8.2,8.156,8.156,0,0,1-8.09,8.2m0-14.686a6.485,6.485,0,1,0,6.371,6.484,6.436,6.436,0,0,0-6.371-6.484" transform="translate(-45.666 -46.374)" fill="#fff"/>
      </g>
    </g>
  </g>
</svg>
